<svg xmlns="http://www.w3.org/2000/svg" id="linkedin-bug-blue-medium" width="34" height="34" aria-hidden="false" data-supported-dps="34x34" viewBox="0 0 34 34" data-token-id="417" class="_1d24587d a9c78430 _995ca7ca bb733d39" role="img" aria-label="LinkedIn" style="width: 34px; min-width: 34px; height: 34px; min-height: 34px;">    <path fill="#fff" d="M34 2.5v29a2.5 2.5 0 0 1-2.5 2.5h-29A2.5 2.5 0 0 1 0 31.5v-29A2.5 2.5 0 0 1 2.5 0h29A2.5 2.5 0 0 1 34 2.5M10 13H5v16h5zm.45-5.5a2.88 2.88 0 0 0-2.86-2.9H7.5a2.9 2.9 0 0 0 0 5.8 2.88 2.88 0 0 0 2.95-2.81zM29 19.28c0-4.81-3.06-6.68-6.1-6.68a5.7 5.7 0 0 0-5.06 2.58h-.14V13H13v16h5v-8.51a3.32 3.32 0 0 1 3-3.58h.19c1.59 0 2.77 1 2.77 3.52V29h5z"/></svg>